<svg version="1.1" xmlns="http://www.w3.org/2000/svg" viewBox="-2357.52808791029 -1629.824008178711 9167.128577717418 2459.903997802734"><desc>Created with Snap</desc><defs></defs><g><rect x="-2357.52808791029" y="-1629.824008178711" width="9167.128577717418" height="2459.903997802734" style="" fill="#00203f"></rect><g transform="matrix(24.2903,0,0,24.2903,-2354.2301,-1626.5563)"><g><path d="M74.265,60.41c0.964,2.929,1.401,5.966,1.261,9.015c2.584-0.989,5.013-2.49,7.095-4.572c0.244-0.244,0.41-0.527,0.637-0.78   c0.018-0.341,0.105-0.659,0.105-1.004c0-2.924-0.646-5.691-1.764-8.203C79.522,57.139,77.045,59.022,74.265,60.41z" style="" fill="#adefd1"></path><path d="M54.863,81.605c2.509,1.112,5.276,1.759,8.2,1.759c0.349,0,0.664-0.085,1.004-0.103c0.253-0.227,0.541-0.393,0.781-0.637   c2.08-2.085,3.585-4.516,4.572-7.104c-3.049,0.14-6.086-0.292-9.01-1.257C59.022,77.049,57.137,79.528,54.863,81.605z" style="" fill="#adefd1"></path><path d="M40.588,74.265c-2.925,0.965-5.965,1.396-9.013,1.257c0.988,2.588,2.49,5.023,4.573,7.104   c0.242,0.244,0.528,0.41,0.779,0.637c0.339,0.018,0.661,0.103,1.003,0.103c2.926,0,5.691-0.646,8.202-1.759   C43.861,79.528,41.976,77.049,40.588,74.265z" style="" fill="#adefd1"></path><path d="M26.731,60.41c-2.781-1.388-5.26-3.271-7.337-5.545c-1.112,2.512-1.758,5.279-1.758,8.203c0,0.345,0.085,0.663,0.1,1.004   c0.229,0.253,0.395,0.536,0.639,0.78c2.082,2.082,4.515,3.583,7.098,4.572C25.333,66.376,25.767,63.339,26.731,60.41z" style="" fill="#adefd1"></path><path d="M26.731,40.592c-0.964-2.929-1.398-5.966-1.259-9.016c-2.583,0.989-5.014,2.491-7.098,4.572   c-0.244,0.245-0.41,0.528-0.639,0.781c-0.015,0.341-0.1,0.659-0.1,1.004c0,2.924,0.646,5.69,1.76,8.205   C21.471,43.863,23.95,41.979,26.731,40.592z" style="" fill="#adefd1"></path><path d="M46.132,19.397c-2.511-1.114-5.275-1.76-8.202-1.76c-0.342,0-0.664,0.084-1.003,0.102   c-0.251,0.228-0.537,0.393-0.779,0.638c-2.083,2.08-3.585,4.515-4.573,7.103c3.048-0.14,6.088,0.293,9.013,1.257   C41.976,23.952,43.861,21.475,46.132,19.397z" style="" fill="#adefd1"></path><path d="M60.41,26.736c2.924-0.964,5.961-1.396,9.01-1.257c-0.99-2.588-2.492-5.017-4.572-7.103   c-0.24-0.245-0.528-0.41-0.781-0.638c-0.34-0.018-0.659-0.102-1.004-0.102c-2.924,0-5.691,0.646-8.2,1.76   C57.137,21.475,59.022,23.952,60.41,26.736z" style="" fill="#adefd1"></path><path d="M82.621,36.148c-2.082-2.081-4.511-3.583-7.095-4.572c0.14,3.05-0.297,6.087-1.261,9.016   c2.78,1.388,5.257,3.271,7.334,5.547c1.117-2.515,1.764-5.281,1.764-8.205c0-0.345-0.088-0.663-0.105-1.004   C83.031,36.677,82.865,36.394,82.621,36.148z" style="" fill="#adefd1"></path><path d="M58.228,63.068c0-0.166-0.048-0.319-0.052-0.484c-1.061-0.21-2.09-0.498-3.099-0.834c-0.462,0.921-0.89,1.851-1.469,2.719   c0.113,0.122,0.19,0.267,0.309,0.384c1.143,1.14,2.404,2.069,3.718,2.881C57.993,66.228,58.228,64.683,58.228,63.068z" style="" fill="#adefd1"></path><path d="M43.362,67.733c1.313-0.812,2.574-1.741,3.715-2.881c0.12-0.117,0.199-0.262,0.312-0.384   c-0.581-0.868-1.008-1.798-1.471-2.719c-1.008,0.336-2.038,0.624-3.1,0.834c-0.002,0.165-0.048,0.318-0.048,0.484   C42.771,64.683,43.006,66.228,43.362,67.733z" style="" fill="#adefd1"></path><path d="M36.148,53.922c-1.139,1.14-2.068,2.4-2.88,3.717c1.503,0.355,3.051,0.59,4.663,0.59c0.166,0,0.318-0.044,0.484-0.048   c0.209-1.06,0.495-2.094,0.833-3.102c-0.918-0.463-1.848-0.886-2.716-1.471C36.411,53.726,36.269,53.805,36.148,53.922z" style="" fill="#adefd1"></path><path d="M38.415,42.821c-0.166-0.006-0.319-0.05-0.484-0.05c-1.612,0-3.159,0.236-4.663,0.591c0.812,1.318,1.739,2.578,2.88,3.717   c0.12,0.118,0.262,0.196,0.384,0.314c0.868-0.583,1.797-1.008,2.716-1.471C38.91,44.916,38.625,43.881,38.415,42.821z" style="" fill="#adefd1"></path><path d="M42.771,37.934c0,0.166,0.046,0.318,0.048,0.484c1.062,0.21,2.092,0.498,3.1,0.834c0.462-0.921,0.89-1.851,1.471-2.719   c-0.113-0.123-0.192-0.267-0.312-0.385c-1.141-1.139-2.402-2.066-3.715-2.879C43.006,34.774,42.771,36.319,42.771,37.934z" style="" fill="#adefd1"></path><path d="M57.635,33.27c-1.314,0.812-2.575,1.74-3.718,2.879c-0.118,0.118-0.195,0.262-0.309,0.385   c0.579,0.868,1.007,1.798,1.469,2.719c1.008-0.336,2.038-0.624,3.099-0.834c0.004-0.166,0.052-0.318,0.052-0.484   C58.228,36.319,57.993,34.774,57.635,33.27z" style="" fill="#adefd1"></path><path d="M63.063,42.771c-0.166,0-0.314,0.044-0.48,0.05c-0.209,1.06-0.498,2.095-0.838,3.102c0.921,0.463,1.851,0.888,2.719,1.471   c0.122-0.118,0.266-0.196,0.384-0.314c1.139-1.139,2.067-2.398,2.883-3.717C66.226,43.008,64.678,42.771,63.063,42.771z" style="" fill="#adefd1"></path><path d="M48.074,49.493c-0.035,0.676-0.035,1.339,0,2.012c0.452,0.502,0.921,0.969,1.42,1.423c0.671,0.034,1.335,0.034,2.007,0   c0.5-0.454,0.972-0.926,1.423-1.423c0.035-0.673,0.033-1.336,0-2.008c-0.451-0.502-0.921-0.969-1.42-1.423   c-0.673-0.035-1.34-0.035-2.012,0C48.995,48.528,48.524,48.995,48.074,49.493z" style="" fill="#adefd1"></path><path d="M64.464,53.608c-0.868,0.585-1.798,1.008-2.719,1.471c0.34,1.008,0.628,2.042,0.838,3.102   c0.166,0.004,0.314,0.048,0.48,0.048c1.615,0,3.163-0.234,4.668-0.59c-0.816-1.316-1.745-2.577-2.883-3.717   C64.73,53.805,64.586,53.726,64.464,53.608z" style="" fill="#adefd1"></path><path d="M72.271,55.926c2.583-1.327,4.827-3.173,6.615-5.425c-1.788-2.252-4.031-4.098-6.615-5.425   c-1.091,1.929-2.357,3.784-3.998,5.425C69.914,52.142,71.179,53.996,72.271,55.926z" style="" fill="#adefd1"></path><path d="M62.138,31.245c0.585,2.133,0.925,4.367,0.925,6.688c2.322,0,4.555,0.341,6.689,0.93c0.868-2.745,1.143-5.603,0.82-8.436   C67.74,30.104,64.879,30.375,62.138,31.245z" style="" fill="#adefd1"></path><path d="M50.498,22.11c-2.253,1.794-4.099,4.033-5.424,6.616c1.927,1.096,3.782,2.361,5.424,4.002   c1.644-1.641,3.498-2.906,5.426-4.002C54.597,26.144,52.752,23.904,50.498,22.11z" style="" fill="#adefd1"></path><path d="M37.931,37.934c0-2.321,0.34-4.556,0.927-6.688c-2.74-0.87-5.601-1.141-8.432-0.817c-0.323,2.833-0.05,5.69,0.817,8.436   C33.377,38.274,35.612,37.934,37.931,37.934z" style="" fill="#adefd1"></path><path d="M22.108,50.501c1.794,2.252,4.034,4.098,6.618,5.425c1.091-1.93,2.356-3.784,3.999-5.425   c-1.643-1.641-2.908-3.496-4.001-5.425C26.143,46.403,23.902,48.249,22.108,50.501z" style="" fill="#adefd1"></path><path d="M38.858,69.757c-0.587-2.133-0.927-4.367-0.927-6.688c-2.319,0-4.553-0.341-6.688-0.93   c-0.868,2.745-1.14,5.604-0.817,8.436C33.257,70.896,36.118,70.627,38.858,69.757z" style="" fill="#adefd1"></path><path d="M50.498,78.891c2.255-1.793,4.1-4.032,5.426-6.616c-1.929-1.095-3.782-2.36-5.426-4c-1.642,1.64-3.497,2.905-5.424,4   C46.401,74.858,48.245,77.098,50.498,78.891z" style="" fill="#adefd1"></path><path d="M63.063,63.068c0,2.321-0.34,4.556-0.925,6.688c2.741,0.87,5.602,1.139,8.435,0.817c0.323-2.832,0.048-5.695-0.82-8.436   C67.618,62.728,65.385,63.068,63.063,63.068z" style="" fill="#adefd1"></path><path d="M87.425,44.026c-0.571,2.304-1.457,4.476-2.614,6.475c1.157,1.999,2.043,4.177,2.614,6.475   C88.844,52.771,88.844,48.231,87.425,44.026z" style="" fill="#adefd1"></path><path d="M81.233,29.05c-1.981-4.041-5.244-7.301-9.286-9.282c1.249,2.063,2.147,4.268,2.745,6.541   C76.966,26.907,79.165,27.802,81.233,29.05z" style="" fill="#adefd1"></path><path d="M56.971,13.576c-4.204-1.418-8.742-1.418-12.947,0c2.3,0.571,4.473,1.453,6.473,2.614   C52.5,15.029,54.671,14.147,56.971,13.576z" style="" fill="#adefd1"></path><path d="M29.047,19.768c-4.042,1.981-7.301,5.241-9.284,9.282c2.066-1.248,4.268-2.143,6.541-2.741   C26.904,24.035,27.798,21.831,29.047,19.768z" style="" fill="#adefd1"></path><path d="M13.571,56.973c0.574-2.3,1.458-4.473,2.616-6.472c-1.159-1.999-2.04-4.171-2.616-6.472   C12.158,48.231,12.158,52.771,13.571,56.973z" style="" fill="#adefd1"></path><path d="M19.765,71.952c1.981,4.041,5.24,7.297,9.279,9.282c-1.248-2.068-2.141-4.269-2.741-6.542   C24.031,74.095,21.829,73.2,19.765,71.952z" style="" fill="#adefd1"></path><path d="M44.024,87.426c4.205,1.418,8.746,1.418,12.947,0c-2.3-0.572-4.472-1.453-6.474-2.614   C48.498,85.973,46.324,86.854,44.024,87.426z" style="" fill="#adefd1"></path><path d="M71.952,81.234c4.037-1.985,7.3-5.241,9.281-9.282c-2.068,1.248-4.267,2.143-6.541,2.74   C74.095,76.966,73.2,79.166,71.952,81.234z" style="" fill="#adefd1"></path></g><desc>Created with Snap</desc><defs></defs></g><g><g transform="matrix(1.024,0,0,-1.024,0,0)"><path d="M399 0L144 0Q125 0 112 10Q100 21 100 39L100 742Q100 759 111 770Q122 781 139 781L382 781Q442 781 490 755Q539 730 567 686Q596 642 596 584Q596 530 567 488Q538 446 491 424Q558 406 599 356Q640 307 640 231Q640 163 609 111Q578 59 523 29Q469 0 399 0ZM178 380L178 75L399 75Q447 75 484 94Q521 113 542 148Q563 183 563 231Q563 276 542 309Q521 343 484 361Q447 380 399 380L178 380ZM178 706L178 455L382 455Q442 455 481 489Q520 523 520 584Q520 644 481 675Q442 706 382 706L178 706ZM1034 -5Q954 -5 891 31Q828 67 792 130Q756 193 756 273Q756 354 792 417Q828 480 891 516Q954 552 1034 552Q1114 552 1176 516Q1239 480 1275 417Q1311 354 1312 273Q1312 193 1275 130Q1239 67 1176 31Q1114 -5 1034 -5ZM1034 65Q1092 65 1138 92Q1184 119 1210 166Q1236 213 1236 273Q1236 333 1210 380Q1184 428 1138 455Q1092 482 1034 482Q976 482 930 455Q884 428 857 380Q831 333 831 273Q831 213 857 166Q884 119 930 92Q976 65 1034 65ZM1703 -5Q1626 -5 1565 31Q1504 68 1468 131Q1433 194 1433 273Q1433 353 1469 416Q1506 479 1569 515Q1632 552 1711 552Q1790 552 1852 515Q1915 479 1951 416Q1988 353 1989 273L1958 249Q1958 177 1924 119Q1891 62 1833 28Q1776 -5 1703 -5ZM1711 65Q1769 65 1814 92Q1860 119 1886 166Q1913 214 1913 273Q1913 333 1886 380Q1860 427 1814 454Q1769 482 1711 482Q1654 482 1608 454Q1562 427 1535 380Q1508 333 1508 273Q1508 214 1535 166Q1562 119 1608 92Q1654 65 1711 65ZM1950 0Q1933 0 1922 10Q1911 21 1911 38L1911 209L1930 288L1989 273L1989 38Q1989 21 1978 10Q1967 0 1950 0ZM2793 -10Q2712 -10 2641 21Q2571 52 2517 107Q2464 163 2434 235Q2404 308 2404 391Q2404 473 2433 545Q2463 618 2516 673Q2570 728 2640 759Q2711 791 2793 791Q2865 791 2924 770Q2983 749 3038 703Q3047 696 3048 686Q3050 677 3046 668Q3042 660 3034 656Q3032 648 3024 644Q3016 640 3005 641Q2995 642 2985 650Q2946 684 2900 700Q2854 717 2793 717Q2728 717 2671 691Q2615 665 2572 620Q2529 575 2504 516Q2480 457 2480 391Q2480 323 2504 264Q2529 205 2572 160Q2615 115 2671 89Q2728 64 2793 64Q2848 64 2897 82Q2946 100 2990 134Q3002 144 3015 142Q3029 140 3039 130Q3049 120 3049 104Q3049 96 3046 89Q3044 83 3038 76Q2987 29 2924 9Q2861 -10 2793 -10ZM3452 -5Q3372 -5 3309 31Q3246 67 3210 130Q3174 193 3174 273Q3174 354 3210 417Q3246 480 3309 516Q3372 552 3452 552Q3532 552 3594 516Q3657 480 3693 417Q3729 354 3730 273Q3730 193 3693 130Q3657 67 3594 31Q3532 -5 3452 -5ZM3452 65Q3510 65 3556 92Q3602 119 3628 166Q3654 213 3654 273Q3654 333 3628 380Q3602 428 3556 455Q3510 482 3452 482Q3394 482 3348 455Q3302 428 3275 380Q3249 333 3249 273Q3249 213 3275 166Q3302 119 3348 92Q3394 65 3452 65ZM4619 0Q4602 0 4591 10Q4580 21 4580 38L4580 326Q4580 397 4543 438Q4506 480 4448 480Q4386 480 4346 438Q4307 397 4308 328L4239 328Q4240 395 4268 446Q4296 497 4345 525Q4394 553 4456 553Q4515 553 4560 525Q4606 497 4631 446Q4657 395 4657 326L4657 38Q4657 21 4646 10Q4636 0 4619 0ZM3919 0Q3901 0 3890 10Q3880 21 3880 38L3880 508Q3880 525 3890 536Q3901 547 3919 547Q3936 547 3946 536Q3957 525 3957 508L3957 38Q3957 21 3946 10Q3936 0 3919 0ZM4270 0Q4253 0 4242 10Q4231 21 4231 38L4231 326Q4231 397 4194 438Q4157 480 4099 480Q4037 480 3997 439Q3957 399 3957 334L3902 334Q3904 398 3930 447Q3957 497 4003 525Q4049 553 4107 553Q4166 553 4211 525Q4257 497 4282 446Q4308 395 4308 326L4308 38Q4308 21 4297 10Q4287 0 4270 0ZM4882 0Q4864 0 4853 10Q4843 21 4843 39L4843 508Q4843 526 4853 536Q4864 547 4882 547Q4899 547 4909 536Q4920 526 4920 508L4920 39Q4920 21 4909 10Q4899 0 4882 0ZM4881 651Q4859 651 4843 667Q4827 683 4827 706Q4827 731 4843 745Q4860 760 4882 760Q4903 760 4919 745Q4936 731 4936 706Q4936 683 4920 667Q4904 651 4881 651ZM5365 -5Q5286 -5 5223 31Q5160 68 5123 131Q5087 194 5087 274Q5087 353 5122 416Q5158 479 5219 515Q5280 552 5357 552Q5424 552 5478 523Q5532 495 5565 448L5565 742Q5565 760 5576 770Q5587 781 5604 781Q5621 781 5632 770Q5643 760 5643 742L5643 270Q5641 192 5604 129Q5568 67 5505 31Q5443 -5 5365 -5ZM5365 65Q5423 65 5468 92Q5514 120 5540 167Q5567 214 5567 274Q5567 333 5540 380Q5514 428 5468 455Q5423 482 5365 482Q5308 482 5262 455Q5216 428 5189 380Q5162 333 5162 274Q5162 214 5189 167Q5216 120 5262 92Q5308 65 5365 65ZM6064 -5Q5987 -5 5926 31Q5865 68 5829 131Q5794 194 5794 273Q5794 353 5830 416Q5867 479 5930 515Q5993 552 6072 552Q6151 552 6213 515Q6276 479 6312 416Q6349 353 6350 273L6319 249Q6319 177 6285 119Q6252 62 6194 28Q6137 -5 6064 -5ZM6072 65Q6130 65 6175 92Q6221 119 6247 166Q6274 214 6274 273Q6274 333 6247 380Q6221 427 6175 454Q6130 482 6072 482Q6015 482 5969 454Q5923 427 5896 380Q5869 333 5869 273Q5869 214 5896 166Q5923 119 5969 92Q6015 65 6072 65ZM6311 0Q6294 0 6283 10Q6272 21 6272 38L6272 209L6291 288L6350 273L6350 38Q6350 21 6339 10Q6328 0 6311 0Z" style="" fill="#ffffff"></path></g></g></g></svg>